<svg width="124" height="124" viewBox="0 0 122 124" fill="none" xmlns="http://www.w3.org/2000/svg">
    <path fill-rule="evenodd" clip-rule="evenodd"
          d="M55.6432 6.14761L55.6612 6.12077L56.3464 5.09395L57.6185 3.18747C57.9957 2.62232 58.8262 2.62232 59.2034 3.18747L60.4756 5.09395L61.1608 6.12077L61.1787 6.14761L63.837 10.1313C64.292 10.8132 63.7291 11.7231 62.9127 11.6492C61.4358 11.5153 59.94 11.4469 58.4282 11.4469C56.9042 11.4469 55.3964 11.5164 53.9078 11.6524C53.0911 11.727 52.5275 10.8167 52.9827 10.1346L55.6432 6.14761ZM45.0626 13.2896C45.2833 13.2272 45.4759 13.089 45.6031 12.8983L51.5161 4.03716C51.9624 3.36835 51.4287 2.48876 50.6317 2.59503C22.0488 6.40637 0 30.8821 0 60.5076C0 74.3602 4.82077 87.0868 12.8762 97.1014C13.2715 97.5928 14.0261 97.5553 14.3818 97.0345L18.8166 90.5426C19.047 90.2054 19.036 89.7594 18.795 89.4297C12.8669 81.3199 9.36756 71.3224 9.36756 60.5076C9.36756 38.0454 24.463 19.1089 45.0626 13.2896ZM71.2108 12.8863C71.3382 13.0773 71.5312 13.2156 71.7521 13.2778C92.373 19.0835 107.489 38.0303 107.489 60.5076C107.489 71.2735 104.021 81.2295 98.1416 89.3195C97.9021 89.6491 97.8918 90.0939 98.1216 90.4303L102.56 96.9278C102.916 97.4493 103.672 97.486 104.067 96.993C112.07 86.995 116.856 74.3102 116.856 60.5076C116.856 30.8688 94.7879 6.3845 66.1864 2.58994C65.3896 2.48423 64.8563 3.36361 65.3024 4.03218L71.2108 12.8863ZM19.0276 98.3965L21.5861 94.6512C21.9322 94.1445 22.6599 94.0927 23.0855 94.5347C25.4471 96.987 28.0616 99.1942 30.887 101.114C31.6927 101.662 31.3172 103.001 30.343 103.001H21.4584H21.2181H19.0812H18.7046C18.4615 103.001 18.2272 102.908 18.0515 102.74C17.6666 102.372 17.2867 101.999 16.9119 101.62C16.8827 101.591 16.8767 101.545 16.9001 101.511V101.511L17.6867 100.359L18.892 98.5949L19.0276 98.3965ZM58.4282 109.568C53.6902 109.568 49.1091 108.897 44.7749 107.643C44.6881 107.618 44.5982 107.605 44.5078 107.605H26.7462C25.8262 107.605 25.4562 108.759 26.2234 109.267C35.4567 115.377 46.5269 118.936 58.4282 118.936C70.3295 118.936 81.3997 115.377 90.633 109.267C91.4002 108.759 91.0301 107.605 90.1101 107.605H72.3486C72.2582 107.605 72.1683 107.618 72.0814 107.643C67.7472 108.897 63.1661 109.568 58.4282 109.568ZM97.9337 103.001H98.1517C98.3949 103.001 98.6291 102.908 98.8048 102.74C99.0507 102.505 99.2946 102.268 99.5363 102.028C99.8598 101.708 99.9042 101.202 99.6474 100.827L99.3282 100.359L98.1229 98.5949L97.9873 98.3965L95.3629 94.5547C95.0162 94.0472 94.2869 93.9962 93.8617 94.4401C91.4763 96.9303 88.831 99.1696 85.9693 101.114C85.1636 101.662 85.5392 103.001 86.5133 103.001H95.5565H95.7968H97.9337Z"
          fill="white"/>
    <path d="M57.7208 41.7549C58.0991 41.2012 58.9158 41.2012 59.294 41.7549L100.115 101.511C100.547 102.143 100.094 103.001 99.3282 103.001H17.6866C16.9209 103.001 16.4681 102.143 16.9 101.511L57.7208 41.7549Z"
          fill="white"/>
    <path d="M57.6092 17.7249C57.9841 17.141 58.8376 17.141 59.2125 17.7249L92.3213 69.2951C92.7283 69.9291 92.273 70.7624 91.5196 70.7624H25.3021C24.5487 70.7624 24.0935 69.9291 24.5005 69.2951L57.6092 17.7249Z"
          fill="white"/>
    <path d="M57.6185 3.18748C57.9956 2.62234 58.8262 2.62234 59.2033 3.18748L84.084 40.4732C84.5065 41.1062 84.0527 41.9546 83.2916 41.9546H33.5302C32.7691 41.9546 32.3154 41.1062 32.7378 40.4732L57.6185 3.18748Z"
          fill="white"/>
</svg>
